<svg width="15" height="21" viewBox="0 0 15 21" fill="none" xmlns="http://www.w3.org/2000/svg">
<path d="M11.8753 8.3064C11.8753 8.3064 11.6669 9.34806 8.54192 13.5147C5.52109 17.4731 9.89609 20.3897 10.4169 20.8064H10.5211C11.1461 20.2856 19.0628 15.2856 11.8753 8.3064Z" fill="#56CCF2"/>
<path d="M9.37508 6.01503C9.37508 3.6192 8.43758 1.4317 7.50008 0.181701C7.18758 -0.130799 6.66675 -0.0266319 6.56258 0.390035C6.14592 1.95253 4.89592 5.28587 1.87508 9.2442C-1.97908 14.2442 1.56258 19.6609 5.20842 20.7025C7.18758 21.2234 4.68758 19.6609 4.37508 16.4317C4.06258 12.3692 9.37508 9.34837 9.37508 6.01503Z" fill="#2F80ED"/>
</svg>
