<svg width="20" height="20" id="customer" viewBox="0 0 20 20" fill="none" xmlns="http://www.w3.org/2000/svg">
<path d="M15 5.96675C14.95 5.95842 14.8916 5.95842 14.8416 5.96675C13.6916 5.92508 12.775 4.98342 12.775 3.81675C12.775 2.62508 13.7333 1.66675 14.925 1.66675C16.1166 1.66675 17.075 2.63342 17.075 3.81675C17.0666 4.98342 16.15 5.92508 15 5.96675Z" stroke="#292D32" stroke-width="0.78" stroke-linecap="round" stroke-linejoin="round"/>
<path d="M14.1416 12.0335C15.2833 12.2252 16.5416 12.0252 17.425 11.4335C18.6 10.6502 18.6 9.36688 17.425 8.58355C16.5333 7.99188 15.2583 7.79188 14.1166 7.99188" stroke="#292D32" stroke-width="0.78" stroke-linecap="round" stroke-linejoin="round"/>
<path d="M4.97486 5.96675C5.02486 5.95842 5.0832 5.95842 5.1332 5.96675C6.2832 5.92508 7.19986 4.98342 7.19986 3.81675C7.19986 2.62508 6.24153 1.66675 5.04986 1.66675C3.8582 1.66675 2.89986 2.63342 2.89986 3.81675C2.9082 4.98342 3.82486 5.92508 4.97486 5.96675Z" stroke="#292D32" stroke-width="0.78" stroke-linecap="round" stroke-linejoin="round"/>
<path d="M5.83316 12.0335C4.69149 12.2252 3.43316 12.0252 2.54983 11.4335C1.37483 10.6502 1.37483 9.36688 2.54983 8.58355C3.4415 7.99188 4.71649 7.79188 5.85816 7.99188" stroke="#292D32" stroke-width="0.78" stroke-linecap="round" stroke-linejoin="round"/>
<path d="M9.99998 12.1916C9.94998 12.1833 9.89165 12.1833 9.84165 12.1916C8.69165 12.1499 7.77498 11.2083 7.77498 10.0416C7.77498 8.84994 8.73331 7.8916 9.92498 7.8916C11.1166 7.8916 12.075 8.85827 12.075 10.0416C12.0666 11.2083 11.15 12.1583 9.99998 12.1916Z" stroke="#292D32" stroke-width="0.78" stroke-linecap="round" stroke-linejoin="round"/>
<path d="M7.57498 14.8166C6.39998 15.5999 6.39998 16.8832 7.57498 17.6666C8.90831 18.5582 11.0916 18.5582 12.425 17.6666C13.6 16.8832 13.6 15.5999 12.425 14.8166C11.1 13.9332 8.90831 13.9332 7.57498 14.8166Z" stroke="#292D32" stroke-width="0.78" stroke-linecap="round" stroke-linejoin="round"/>
</svg>
