<svg width="20" height="20" id="dashboard" viewBox="0 0 20 20" fill="none" xmlns="http://www.w3.org/2000/svg">
<path d="M4.16669 8.33342H5.83335C7.50002 8.33342 8.33335 7.50008 8.33335 5.83342V4.16675C8.33335 2.50008 7.50002 1.66675 5.83335 1.66675H4.16669C2.50002 1.66675 1.66669 2.50008 1.66669 4.16675V5.83342C1.66669 7.50008 2.50002 8.33342 4.16669 8.33342Z" fill="#2F80ED"/>
<path d="M14.1667 8.33342H15.8334C17.5001 8.33342 18.3334 7.50008 18.3334 5.83342V4.16675C18.3334 2.50008 17.5001 1.66675 15.8334 1.66675H14.1667C12.5001 1.66675 11.6667 2.50008 11.6667 4.16675V5.83342C11.6667 7.50008 12.5001 8.33342 14.1667 8.33342Z" fill="#2F80ED"/>
<path d="M14.1667 18.3334H15.8334C17.5001 18.3334 18.3334 17.5001 18.3334 15.8334V14.1667C18.3334 12.5001 17.5001 11.6667 15.8334 11.6667H14.1667C12.5001 11.6667 11.6667 12.5001 11.6667 14.1667V15.8334C11.6667 17.5001 12.5001 18.3334 14.1667 18.3334Z" fill="#2F80ED"/>
<path d="M4.16669 18.3334H5.83335C7.50002 18.3334 8.33335 17.5001 8.33335 15.8334V14.1667C8.33335 12.5001 7.50002 11.6667 5.83335 11.6667H4.16669C2.50002 11.6667 1.66669 12.5001 1.66669 14.1667V15.8334C1.66669 17.5001 2.50002 18.3334 4.16669 18.3334Z" fill="#2F80ED"/>
</svg>
