<svg width="20" height="20" id="payment" viewBox="0 0 20 20" fill="none" xmlns="http://www.w3.org/2000/svg">
<path d="M10.5499 2.09853L10.5249 2.15686L8.10824 7.76519H5.73324C5.16657 7.76519 4.62491 7.88186 4.13324 8.09019L5.59157 4.60686L5.62491 4.52353L5.68324 4.39019C5.69991 4.34019 5.71657 4.29019 5.74157 4.24853C6.83324 1.72353 8.06657 1.14853 10.5499 2.09853Z" stroke="#292D32" stroke-linecap="round" stroke-linejoin="round"/>
<path d="M15.0416 7.93197C14.6666 7.8153 14.2666 7.7653 13.8666 7.7653H8.10825L10.5249 2.15697L10.5499 2.09863C10.6749 2.1403 10.7916 2.19863 10.9166 2.24863L12.7582 3.02363C13.7832 3.44863 14.4999 3.8903 14.9332 4.42363C15.0166 4.52363 15.0832 4.6153 15.1416 4.72363C15.2166 4.8403 15.2749 4.95697 15.3082 5.08197C15.3416 5.15697 15.3666 5.23197 15.3832 5.29863C15.6082 5.99863 15.4749 6.85697 15.0416 7.93197Z" stroke="#292D32" stroke-linecap="round" stroke-linejoin="round"/>
<path d="M17.9348 11.8318V13.4568C17.9348 13.6235 17.9264 13.7901 17.9181 13.9568C17.7598 16.8651 16.1348 18.3318 13.0514 18.3318H6.55142C6.35142 18.3318 6.15142 18.3151 5.95976 18.2901C3.30976 18.1151 1.89309 16.6985 1.71809 14.0485C1.69309 13.8568 1.67642 13.6568 1.67642 13.4568V11.8318C1.67642 10.1568 2.69309 8.71514 4.14309 8.09014C4.64309 7.8818 5.17642 7.76514 5.74309 7.76514H13.8764C14.2848 7.76514 14.6848 7.82347 15.0514 7.9318C16.7098 8.44014 17.9348 9.99014 17.9348 11.8318Z" stroke="#292D32" stroke-linecap="round" stroke-linejoin="round"/>
<path d="M5.5916 4.60693L4.13326 8.09027C2.68326 8.71527 1.6666 10.1569 1.6666 11.8319V9.39027C1.6666 7.0236 3.34993 5.0486 5.5916 4.60693Z" stroke="#292D32" stroke-linecap="round" stroke-linejoin="round"/>
<path d="M17.9322 9.38988V11.8315C17.9322 9.99821 16.7155 8.43988 15.0488 7.93988C15.4822 6.85654 15.6072 6.00654 15.3988 5.29821C15.3822 5.22321 15.3572 5.14821 15.3238 5.08154C16.8738 5.88154 17.9322 7.52321 17.9322 9.38988Z" stroke="#292D32" stroke-linecap="round" stroke-linejoin="round"/>
</svg>
