<svg width="20" height="20" id="settings" viewBox="0 0 20 20" fill="none" xmlns="http://www.w3.org/2000/svg">
<path d="M9.99991 12.5C11.3806 12.5 12.4999 11.3807 12.4999 10C12.4999 8.61929 11.3806 7.5 9.99991 7.5C8.6192 7.5 7.49991 8.61929 7.49991 10C7.49991 11.3807 8.6192 12.5 9.99991 12.5Z" stroke="#292D32" stroke-miterlimit="10" stroke-linecap="round" stroke-linejoin="round"/>
<path d="M1.6666 10.7334V9.26669C1.6666 8.40003 2.37493 7.68336 3.24993 7.68336C4.75826 7.68336 5.37493 6.6167 4.6166 5.30836C4.18326 4.55836 4.4416 3.58336 5.19993 3.15003L6.6416 2.32503C7.29993 1.93336 8.14993 2.1667 8.5416 2.82503L8.63326 2.98336C9.38326 4.2917 10.6166 4.2917 11.3749 2.98336L11.4666 2.82503C11.8583 2.1667 12.7083 1.93336 13.3666 2.32503L14.8083 3.15003C15.5666 3.58336 15.8249 4.55836 15.3916 5.30836C14.6333 6.6167 15.2499 7.68336 16.7583 7.68336C17.6249 7.68336 18.3416 8.39169 18.3416 9.26669V10.7334C18.3416 11.6 17.6333 12.3167 16.7583 12.3167C15.2499 12.3167 14.6333 13.3834 15.3916 14.6917C15.8249 15.45 15.5666 16.4167 14.8083 16.85L13.3666 17.675C12.7083 18.0667 11.8583 17.8334 11.4666 17.175L11.3749 17.0167C10.6249 15.7084 9.3916 15.7084 8.63326 17.0167L8.5416 17.175C8.14993 17.8334 7.29993 18.0667 6.6416 17.675L5.19993 16.85C4.4416 16.4167 4.18326 15.4417 4.6166 14.6917C5.37493 13.3834 4.75826 12.3167 3.24993 12.3167C2.37493 12.3167 1.6666 11.6 1.6666 10.7334Z" stroke="#292D32" stroke-miterlimit="10" stroke-linecap="round" stroke-linejoin="round"/>
</svg>
